<mxfile host="app.diagrams.net" agent="Mozilla/5.0 (Macintosh; Intel Mac OS X 10_15_7) AppleWebKit/537.36 (KHTML, like Gecko) Chrome/138.0.0.0 Safari/537.36" version="28.1.2">
  <diagram name="Page-1" id="QXYrqY7JLHmrndUXmTju">
    <mxGraphModel dx="946" dy="644" grid="1" gridSize="10" guides="1" tooltips="1" connect="1" arrows="1" fold="1" page="1" pageScale="1" pageWidth="850" pageHeight="1100" math="0" shadow="0">
      <root>
        <mxCell id="0" />
        <mxCell id="1" parent="0" />
        <mxCell id="odt1xIOpjMxUEYzNFtCi-1" value="&lt;div&gt;&lt;font style=&quot;font-size: 15px;&quot; face=&quot;Courier New&quot;&gt;SW2(L2)&lt;/font&gt;&lt;/div&gt;&lt;div&gt;&lt;font face=&quot;Courier New&quot;&gt;Fa0/2 -&amp;gt; VLAN 30 (PC-B1)&lt;/font&gt;&lt;/div&gt;&lt;div&gt;&lt;font face=&quot;Courier New&quot;&gt;Fa0/3 -&amp;gt; VLAN 40 (PC-B2)&lt;/font&gt;&lt;/div&gt;&lt;div&gt;&lt;br&gt;&lt;/div&gt;" style="rounded=0;whiteSpace=wrap;html=1;align=left;" vertex="1" parent="1">
          <mxGeometry x="310" y="90" width="170" height="130" as="geometry" />
        </mxCell>
        <mxCell id="odt1xIOpjMxUEYzNFtCi-16" value="" style="edgeStyle=orthogonalEdgeStyle;rounded=0;orthogonalLoop=1;jettySize=auto;html=1;" edge="1" parent="1" source="odt1xIOpjMxUEYzNFtCi-2" target="odt1xIOpjMxUEYzNFtCi-1">
          <mxGeometry relative="1" as="geometry" />
        </mxCell>
        <mxCell id="odt1xIOpjMxUEYzNFtCi-17" value="&lt;div&gt;Gi0/1 â†” Gi0/1&amp;nbsp; (Trunk 802.1Q)&lt;/div&gt;&lt;div&gt;Allowed VLANs: 10,20,30,40&lt;/div&gt;" style="edgeLabel;html=1;align=center;verticalAlign=middle;resizable=0;points=[];" vertex="1" connectable="0" parent="odt1xIOpjMxUEYzNFtCi-16">
          <mxGeometry x="-0.14" relative="1" as="geometry">
            <mxPoint x="11" y="-6" as="offset" />
          </mxGeometry>
        </mxCell>
        <mxCell id="odt1xIOpjMxUEYzNFtCi-2" value="&lt;div style=&quot;&quot;&gt;&lt;font style=&quot;font-size: 18px;&quot; face=&quot;Courier New&quot;&gt;SW1(L3)&lt;/font&gt;&lt;/div&gt;&lt;div&gt;&lt;font style=&quot;font-size: 11px;&quot; face=&quot;Courier New&quot;&gt;&lt;b&gt;Vlan10: 192.168.10.1&amp;nbsp; (Finance)&lt;/b&gt;&lt;/font&gt;&lt;/div&gt;&lt;div&gt;&lt;font style=&quot;font-size: 11px;&quot; face=&quot;Courier New&quot;&gt;&lt;b&gt;Vlan20: 192.168.20.1&amp;nbsp; (HR)&lt;/b&gt;&lt;/font&gt;&lt;/div&gt;&lt;div&gt;&lt;font style=&quot;font-size: 11px;&quot; face=&quot;Courier New&quot;&gt;&lt;b&gt;Vlan30: 192.168.30.1&amp;nbsp; (Sales)&lt;/b&gt;&lt;/font&gt;&lt;/div&gt;&lt;div&gt;&lt;font style=&quot;font-size: 11px;&quot; face=&quot;Courier New&quot;&gt;&lt;b&gt;Vlan40: 192.168.40.1&amp;nbsp; (IT)&lt;/b&gt;&lt;/font&gt;&lt;/div&gt;&lt;div&gt;&lt;font style=&quot;font-size: 11px;&quot; face=&quot;Courier New&quot;&gt;ip routing&lt;/font&gt;&lt;/div&gt;&lt;div&gt;&lt;font style=&quot;font-size: 11px;&quot; face=&quot;Courier New&quot;&gt;ACL on Vlan10 OUT:&lt;/font&gt;&lt;/div&gt;&lt;div&gt;&lt;font style=&quot;font-size: 11px;&quot; face=&quot;Courier New&quot;&gt;&amp;nbsp; permit icmp 20.0/24 -&amp;gt; 10.0/24 echo-reply&lt;/font&gt;&lt;/div&gt;&lt;div&gt;&lt;font style=&quot;font-size: 11px;&quot; face=&quot;Courier New&quot;&gt;&amp;nbsp; deny&amp;nbsp; &amp;nbsp;ip&amp;nbsp; &amp;nbsp;20.0/24 -&amp;gt; 10.0/24&lt;/font&gt;&lt;/div&gt;&lt;div&gt;&lt;font style=&quot;font-size: 11px;&quot; face=&quot;Courier New&quot;&gt;&amp;nbsp; permit ip any any&lt;/font&gt;&lt;/div&gt;" style="rounded=0;whiteSpace=wrap;html=1;align=left;" vertex="1" parent="1">
          <mxGeometry x="295" y="340" width="210" height="240" as="geometry" />
        </mxCell>
        <mxCell id="odt1xIOpjMxUEYzNFtCi-14" value="" style="edgeStyle=orthogonalEdgeStyle;rounded=0;orthogonalLoop=1;jettySize=auto;html=1;" edge="1" parent="1" source="odt1xIOpjMxUEYzNFtCi-3" target="odt1xIOpjMxUEYzNFtCi-1">
          <mxGeometry relative="1" as="geometry">
            <Array as="points">
              <mxPoint x="233" y="110" />
              <mxPoint x="233" y="160" />
            </Array>
          </mxGeometry>
        </mxCell>
        <mxCell id="odt1xIOpjMxUEYzNFtCi-15" value="Fa0/3 (VLAN 40)" style="edgeLabel;html=1;align=center;verticalAlign=middle;resizable=0;points=[];" vertex="1" connectable="0" parent="odt1xIOpjMxUEYzNFtCi-14">
          <mxGeometry x="-0.0884" relative="1" as="geometry">
            <mxPoint y="13" as="offset" />
          </mxGeometry>
        </mxCell>
        <mxCell id="odt1xIOpjMxUEYzNFtCi-3" value="&lt;font style=&quot;color: light-dark(rgb(0, 0, 0), rgb(0, 0, 0));&quot;&gt;PC-B2 (192.168.40.10)&lt;/font&gt;" style="rounded=0;whiteSpace=wrap;html=1;fillColor=light-dark(#FFFFFF,#7EA6E0);strokeColor=none;fontFamily=Courier New;" vertex="1" parent="1">
          <mxGeometry x="50" y="90" width="120" height="80" as="geometry" />
        </mxCell>
        <mxCell id="odt1xIOpjMxUEYzNFtCi-9" value="" style="edgeStyle=orthogonalEdgeStyle;rounded=0;orthogonalLoop=1;jettySize=auto;html=1;" edge="1" parent="1" source="odt1xIOpjMxUEYzNFtCi-4" target="odt1xIOpjMxUEYzNFtCi-2">
          <mxGeometry relative="1" as="geometry" />
        </mxCell>
        <mxCell id="odt1xIOpjMxUEYzNFtCi-10" value="Fa0/3 (VLAN 20)" style="edgeLabel;html=1;align=center;verticalAlign=middle;resizable=0;points=[];" vertex="1" connectable="0" parent="odt1xIOpjMxUEYzNFtCi-9">
          <mxGeometry x="0.0684" relative="1" as="geometry">
            <mxPoint x="-12" y="-3" as="offset" />
          </mxGeometry>
        </mxCell>
        <mxCell id="odt1xIOpjMxUEYzNFtCi-4" value="PC-A2 (192.168.20.10)" style="rounded=0;whiteSpace=wrap;html=1;fillColor=light-dark(#6D8764,#9AC7BF);strokeColor=#3A5431;fontColor=#ffffff;fontFamily=Courier New;" vertex="1" parent="1">
          <mxGeometry x="70" y="330" width="120" height="70" as="geometry" />
        </mxCell>
        <mxCell id="odt1xIOpjMxUEYzNFtCi-13" value="Fa0/2 (VLAN 30)" style="edgeStyle=orthogonalEdgeStyle;rounded=0;orthogonalLoop=1;jettySize=auto;html=1;" edge="1" parent="1" source="odt1xIOpjMxUEYzNFtCi-5" target="odt1xIOpjMxUEYzNFtCi-1">
          <mxGeometry relative="1" as="geometry" />
        </mxCell>
        <mxCell id="odt1xIOpjMxUEYzNFtCi-5" value="&lt;font style=&quot;color: light-dark(rgb(0, 0, 0), rgb(0, 0, 0));&quot;&gt;PC-B1 (192.168.30.10)&lt;/font&gt;" style="rounded=0;whiteSpace=wrap;html=1;strokeColor=none;fillColor=light-dark(#FFFFFF,#F8CECC);fontFamily=Courier New;" vertex="1" parent="1">
          <mxGeometry x="610" y="115" width="120" height="75" as="geometry" />
        </mxCell>
        <mxCell id="odt1xIOpjMxUEYzNFtCi-7" value="" style="edgeStyle=orthogonalEdgeStyle;rounded=0;orthogonalLoop=1;jettySize=auto;html=1;" edge="1" parent="1" source="odt1xIOpjMxUEYzNFtCi-6" target="odt1xIOpjMxUEYzNFtCi-2">
          <mxGeometry relative="1" as="geometry" />
        </mxCell>
        <mxCell id="odt1xIOpjMxUEYzNFtCi-8" value="Fa0/2 (VLAN 10)" style="edgeLabel;html=1;align=center;verticalAlign=middle;resizable=0;points=[];" vertex="1" connectable="0" parent="odt1xIOpjMxUEYzNFtCi-7">
          <mxGeometry x="0.2647" relative="1" as="geometry">
            <mxPoint x="8" y="-14" as="offset" />
          </mxGeometry>
        </mxCell>
        <mxCell id="odt1xIOpjMxUEYzNFtCi-6" value="&lt;font style=&quot;color: light-dark(rgb(0, 0, 0), rgb(0, 0, 0));&quot;&gt;PC-A1 (192.168.10.10)&lt;/font&gt;" style="rounded=0;whiteSpace=wrap;html=1;strokeColor=none;fillColor=light-dark(#FFFFFF,#FFCE9F);fontFamily=Courier New;" vertex="1" parent="1">
          <mxGeometry x="660" y="290" width="130" height="70" as="geometry" />
        </mxCell>
      </root>
    </mxGraphModel>
  </diagram>
</mxfile>
